<svg xmlns="http://www.w3.org/2000/svg" viewBox="0 0 300 300"><defs><linearGradient id="a" x1="5.89" y1="150" x2="145.4" y2="150" gradientUnits="userSpaceOnUse"><stop offset="0" stop-color="#9b9b9b" stop-opacity=".95"/><stop offset=".38" stop-color="#fff"/><stop offset=".58" stop-color="#fff"/><stop offset="1" stop-color="#9b9b9b" stop-opacity=".95"/></linearGradient><linearGradient id="b" x1="154.5" y1="81.66" x2="294.11" y2="81.66" gradientUnits="userSpaceOnUse"><stop offset="0" stop-color="#9b9b9b" stop-opacity=".95"/><stop offset=".38" stop-color="#fff"/><stop offset=".58" stop-color="#fff"/><stop offset="1" stop-color="#9b9b9b" stop-opacity=".95"/></linearGradient><linearGradient id="c" x1="154.5" y1="192.17" x2="294.11" y2="192.17" gradientUnits="userSpaceOnUse"><stop offset="0" stop-color="#771b1b" stop-opacity=".95"/><stop offset=".38" stop-color="#d91212"/><stop offset=".58" stop-color="#d91212"/><stop offset="1" stop-color="#771b1b" stop-opacity=".95"/></linearGradient></defs><path d="m145.4,83.98L5.89,9.22l.22,281.57,41.53-33.22-.22-38.11,15.12-9.59,82.85,80.93v-57.71l-45.79-45.37,45.79-28.54v-75.19Zm-41.69,53.04l-55.91,34.82-.65-94.4,56.56,29.7v29.87Z" fill="url(#a)"/><polygon points="294.11 9.22 294.11 55.87 196.35 107.31 196.19 131.58 154.5 154.1 154.5 83.98 294.11 9.22" fill="url(#b)"/><polygon points="294.11 140.85 195.88 198.36 196.19 250.43 154.5 290.78 154.5 174.39 294.11 93.56 294.11 140.85" fill="url(#c)"/></svg>
